<svg width="1440" height="689" viewBox="0 0 1440 689" fill="none" xmlns="http://www.w3.org/2000/svg">
<g clip-path="url(#clip0_749_2891)">
<rect width="1440" height="689" fill="white"/>
<path d="M924.095 281.464C920.693 281.464 916.158 280.825 911.622 279.546C907.087 277.628 902.551 274.431 893.481 271.234C888.945 269.955 883.276 269.316 878.74 268.677C874.205 268.037 868.536 268.037 864 267.398C853.795 266.759 842.457 266.119 829.984 265.48C817.512 264.84 806.173 264.201 792.567 263.562C789.166 263.562 784.63 263.562 778.961 264.201C774.425 264.84 769.89 266.759 767.622 268.037C763.087 269.955 760.819 269.955 756.284 269.955C751.748 269.316 746.079 268.037 739.276 266.759C732.473 265.48 725.669 263.562 715.465 262.922C712.063 262.922 706.394 262.922 701.858 263.562C697.323 264.201 695.055 264.84 692.788 264.84C687.118 265.48 681.449 265.48 674.646 265.48C667.843 265.48 659.906 264.84 651.969 266.119C644.032 266.759 636.095 269.316 631.559 269.955C621.355 271.874 610.016 271.874 597.543 272.513C585.071 272.513 573.732 273.152 563.528 273.792C521.575 275.07 493.229 276.988 493.229 276.988C493.229 276.988 521.575 278.907 563.528 280.825C573.732 281.464 585.071 281.464 597.543 282.103C608.882 282.103 622.488 283.382 638.362 280.825C646.299 279.546 650.835 278.267 655.37 277.628C659.906 276.989 666.709 277.628 673.512 277.628C680.315 277.628 688.252 278.267 697.323 276.988C701.858 276.349 705.26 275.71 708.662 275.71C712.063 275.07 713.197 275.07 716.599 275.07C720 275.07 726.803 276.349 732.473 277.628C739.276 278.907 746.079 280.825 755.15 281.464C759.685 281.464 764.221 281.464 769.89 280.825C772.158 280.185 774.425 279.546 776.693 278.907C778.961 278.267 780.095 277.628 782.362 276.988C788.032 274.431 788.032 274.431 793.701 274.431C806.173 274.431 819.78 274.431 831.118 274.431C843.591 274.431 854.929 274.431 865.134 274.431C875.339 274.431 885.543 273.792 892.347 275.07C899.15 276.349 904.819 279.546 911.622 280.825C917.292 282.103 922.961 282.103 926.362 281.464C929.764 280.825 930.898 279.546 930.898 279.546C930.898 279.546 927.496 280.825 924.095 281.464Z" fill="#F8DB25"/>
<path d="M326.091 188.659L318.484 191.312L304.639 147.829L310.207 203.145L317.813 200.492L331.759 244.238L326.091 188.659Z" fill="#F8DB25"/>
<path d="M1019.09 186.659L1011.48 189.312L997.639 145.829L1003.21 201.145L1010.81 198.492L1024.76 242.238L1019.09 186.659Z" fill="#F8DB25"/>
<path d="M430.561 190.212L422.618 188.87L433.343 144.406L409.311 195.191L417.254 196.533L406.478 241.274L430.561 190.212Z" fill="#F8DB25"/>
<path d="M1123.56 192.212L1115.62 190.87L1126.34 146.406L1102.31 197.191L1110.25 198.533L1099.48 243.274L1123.56 192.212Z" fill="#F8DB25"/>
<path d="M383 185.634H374.944L377.444 140L363 194.085H371.056L368.556 240L383 185.634Z" fill="#F8DB25"/>
<path d="M1076 185.634H1067.94L1070.44 140L1056 194.085H1064.06L1061.56 240L1076 185.634Z" fill="#F8DB25"/>
<path d="M1088.35 277.513V644.511C1072.35 650.905 1055.35 656.659 1038.35 661.774V277.513H1088.35Z" fill="#09AEEF"/>
<path d="M1063.19 324.309C1093.56 324.309 1118.19 306.4 1118.19 284.309C1118.19 262.217 1093.56 244.309 1063.19 244.309C1032.81 244.309 1008.19 262.217 1008.19 284.309C1008.19 306.4 1032.81 324.309 1063.19 324.309Z" fill="#F8DB25"/>
<path d="M1151.12 586.55H978.884C962.837 586.55 950 580.121 950 572.085V571.014C950 562.978 962.837 556.55 978.884 556.55H1151.12C1167.16 556.55 1180 562.978 1180 571.014V572.085C1180 580.121 1167.16 586.55 1151.12 586.55Z" fill="#09AEEF"/>
<path d="M1151.12 533.482H978.884C962.837 533.482 950 527.053 950 519.018V517.946C950 509.911 962.837 503.482 978.884 503.482H1151.12C1167.16 503.482 1180 509.911 1180 517.946V519.018C1180 527.053 1167.16 533.482 1151.12 533.482Z" fill="#09AEEF"/>
<path d="M1151.12 479.775H978.884C962.837 479.775 950 473.346 950 465.311V464.239C950 456.203 962.837 449.775 978.884 449.775H1151.12C1167.16 449.775 1180 456.203 1180 464.239V465.311C1180 473.346 1167.16 479.775 1151.12 479.775Z" fill="#09AEEF"/>
<path d="M1151.12 426.707H978.884C962.837 426.707 950 420.278 950 412.243V411.171C950 403.136 962.837 396.707 978.884 396.707H1151.12C1167.16 396.707 1180 403.136 1180 411.171V412.243C1180 420.278 1167.16 426.707 1151.12 426.707Z" fill="#09AEEF"/>
<path d="M1151.12 373H978.884C962.837 373 950 366.571 950 358.536V357.464C950 349.429 962.837 343 978.884 343H1151.12C1167.16 343 1180 349.429 1180 357.464V358.536C1180 366.571 1167.16 373 1151.12 373Z" fill="#09AEEF"/>
<path d="M398.961 277.513V661.774C381.961 656.659 364.961 650.905 348.961 644.511V277.513H398.961Z" fill="#09AEEF"/>
<path d="M372.803 324.309C403.178 324.309 427.803 306.4 427.803 284.309C427.803 262.217 403.178 244.309 372.803 244.309C342.427 244.309 317.803 262.217 317.803 284.309C317.803 306.4 342.427 324.309 372.803 324.309Z" fill="#F8DB25"/>
<path d="M460.116 586.55H287.884C271.837 586.55 259 580.121 259 572.085V571.014C259 562.978 271.837 556.55 287.884 556.55H460.116C476.163 556.55 489 562.978 489 571.014V572.085C489 580.121 476.163 586.55 460.116 586.55Z" fill="#09AEEF"/>
<path d="M460.116 533.482H287.884C271.837 533.482 259 527.053 259 519.018V517.946C259 509.911 271.837 503.482 287.884 503.482H460.116C476.163 503.482 489 509.911 489 517.946V519.018C489 527.053 476.163 533.482 460.116 533.482Z" fill="#09AEEF"/>
<path d="M460.116 479.775H287.884C271.837 479.775 259 473.346 259 465.311V464.239C259 456.203 271.837 449.775 287.884 449.775H460.116C476.163 449.775 489 456.203 489 464.239V465.311C489 473.346 476.163 479.775 460.116 479.775Z" fill="#09AEEF"/>
<path d="M460.116 426.707H287.884C271.837 426.707 259 420.278 259 412.243V411.171C259 403.136 271.837 396.707 287.884 396.707H460.116C476.163 396.707 489 403.136 489 411.171V412.243C489 420.278 476.163 426.707 460.116 426.707Z" fill="#09AEEF"/>
<path d="M460.116 373H287.884C271.837 373 259 366.571 259 358.536V357.464C259 349.429 271.837 343 287.884 343H460.116C476.163 343 489 349.429 489 357.464V358.536C489 366.571 476.163 373 460.116 373Z" fill="#09AEEF"/>
<path d="M543.9 246.6C541.2 246.6 538.683 246.167 536.35 245.3C534.05 244.4 532.05 243.133 530.35 241.5C528.65 239.867 527.317 237.95 526.35 235.75C525.417 233.55 524.95 231.133 524.95 228.5C524.95 225.867 525.417 223.45 526.35 221.25C527.317 219.05 528.65 217.133 530.35 215.5C532.083 213.867 534.1 212.617 536.4 211.75C538.7 210.85 541.217 210.4 543.95 210.4C546.983 210.4 549.717 210.933 552.15 212C554.617 213.033 556.683 214.567 558.35 216.6L553.15 221.4C551.95 220.033 550.617 219.017 549.15 218.35C547.683 217.65 546.083 217.3 544.35 217.3C542.717 217.3 541.217 217.567 539.85 218.1C538.483 218.633 537.3 219.4 536.3 220.4C535.3 221.4 534.517 222.583 533.95 223.95C533.417 225.317 533.15 226.833 533.15 228.5C533.15 230.167 533.417 231.683 533.95 233.05C534.517 234.417 535.3 235.6 536.3 236.6C537.3 237.6 538.483 238.367 539.85 238.9C541.217 239.433 542.717 239.7 544.35 239.7C546.083 239.7 547.683 239.367 549.15 238.7C550.617 238 551.95 236.95 553.15 235.55L558.35 240.35C556.683 242.383 554.617 243.933 552.15 245C549.717 246.067 546.967 246.6 543.9 246.6ZM580.088 246.6C577.321 246.6 574.754 246.15 572.388 245.25C570.054 244.35 568.021 243.083 566.287 241.45C564.588 239.817 563.254 237.9 562.288 235.7C561.354 233.5 560.888 231.1 560.888 228.5C560.888 225.9 561.354 223.5 562.288 221.3C563.254 219.1 564.604 217.183 566.338 215.55C568.071 213.917 570.104 212.65 572.438 211.75C574.771 210.85 577.304 210.4 580.038 210.4C582.804 210.4 585.337 210.85 587.638 211.75C589.971 212.65 591.988 213.917 593.688 215.55C595.421 217.183 596.771 219.1 597.738 221.3C598.704 223.467 599.188 225.867 599.188 228.5C599.188 231.1 598.704 233.517 597.738 235.75C596.771 237.95 595.421 239.867 593.688 241.5C591.988 243.1 589.971 244.35 587.638 245.25C585.337 246.15 582.821 246.6 580.088 246.6ZM580.038 239.7C581.604 239.7 583.038 239.433 584.338 238.9C585.671 238.367 586.838 237.6 587.838 236.6C588.838 235.6 589.604 234.417 590.138 233.05C590.704 231.683 590.988 230.167 590.988 228.5C590.988 226.833 590.704 225.317 590.138 223.95C589.604 222.583 588.838 221.4 587.838 220.4C586.871 219.4 585.721 218.633 584.388 218.1C583.054 217.567 581.604 217.3 580.038 217.3C578.471 217.3 577.021 217.567 575.688 218.1C574.388 218.633 573.238 219.4 572.238 220.4C571.238 221.4 570.454 222.583 569.888 223.95C569.354 225.317 569.088 226.833 569.088 228.5C569.088 230.133 569.354 231.65 569.888 233.05C570.454 234.417 571.221 235.6 572.188 236.6C573.188 237.6 574.354 238.367 575.688 238.9C577.021 239.433 578.471 239.7 580.038 239.7ZM605.275 246V211H611.975L626.875 235.7H623.325L637.975 211H644.625L644.725 246H637.125L637.075 222.65H638.475L626.775 242.3H623.125L611.175 222.65H612.875V246H605.275ZM653.029 246V211H661.129V246H653.029ZM669.435 246V211H676.135L696.785 236.2H693.535V211H701.535V246H694.885L674.185 220.8H677.435V246H669.435ZM726.716 246.6C723.949 246.6 721.399 246.167 719.066 245.3C716.766 244.4 714.749 243.133 713.016 241.5C711.316 239.867 709.983 237.95 709.016 235.75C708.083 233.55 707.616 231.133 707.616 228.5C707.616 225.867 708.083 223.45 709.016 221.25C709.983 219.05 711.333 217.133 713.066 215.5C714.799 213.867 716.833 212.617 719.166 211.75C721.499 210.85 724.066 210.4 726.866 210.4C729.966 210.4 732.749 210.917 735.216 211.95C737.716 212.983 739.816 214.483 741.516 216.45L736.316 221.25C735.049 219.917 733.666 218.933 732.166 218.3C730.666 217.633 729.033 217.3 727.266 217.3C725.566 217.3 724.016 217.567 722.616 218.1C721.216 218.633 719.999 219.4 718.966 220.4C717.966 221.4 717.183 222.583 716.616 223.95C716.083 225.317 715.816 226.833 715.816 228.5C715.816 230.133 716.083 231.633 716.616 233C717.183 234.367 717.966 235.567 718.966 236.6C719.999 237.6 721.199 238.367 722.566 238.9C723.966 239.433 725.499 239.7 727.166 239.7C728.766 239.7 730.316 239.45 731.816 238.95C733.349 238.417 734.833 237.533 736.266 236.3L740.866 242.15C738.966 243.583 736.749 244.683 734.216 245.45C731.716 246.217 729.216 246.6 726.716 246.6ZM733.466 241.1V227.95H740.866V242.15L733.466 241.1ZM774.05 246.6C771.25 246.6 768.567 246.233 766 245.5C763.434 244.733 761.367 243.75 759.8 242.55L762.55 236.45C764.05 237.517 765.817 238.4 767.85 239.1C769.917 239.767 772 240.1 774.1 240.1C775.7 240.1 776.984 239.95 777.95 239.65C778.95 239.317 779.684 238.867 780.15 238.3C780.617 237.733 780.85 237.083 780.85 236.35C780.85 235.417 780.484 234.683 779.75 234.15C779.017 233.583 778.05 233.133 776.85 232.8C775.65 232.433 774.317 232.1 772.85 231.8C771.417 231.467 769.967 231.067 768.5 230.6C767.067 230.133 765.75 229.533 764.55 228.8C763.35 228.067 762.367 227.1 761.6 225.9C760.867 224.7 760.5 223.167 760.5 221.3C760.5 219.3 761.034 217.483 762.1 215.85C763.2 214.183 764.834 212.867 767 211.9C769.2 210.9 771.95 210.4 775.25 210.4C777.45 210.4 779.617 210.667 781.75 211.2C783.884 211.7 785.767 212.467 787.4 213.5L784.9 219.65C783.267 218.717 781.634 218.033 780 217.6C778.367 217.133 776.767 216.9 775.2 216.9C773.634 216.9 772.35 217.083 771.35 217.45C770.35 217.817 769.634 218.3 769.2 218.9C768.767 219.467 768.55 220.133 768.55 220.9C768.55 221.8 768.917 222.533 769.65 223.1C770.384 223.633 771.35 224.067 772.55 224.4C773.75 224.733 775.067 225.067 776.5 225.4C777.967 225.733 779.417 226.117 780.85 226.55C782.317 226.983 783.65 227.567 784.85 228.3C786.05 229.033 787.017 230 787.75 231.2C788.517 232.4 788.9 233.917 788.9 235.75C788.9 237.717 788.35 239.517 787.25 241.15C786.15 242.783 784.5 244.1 782.3 245.1C780.134 246.1 777.384 246.6 774.05 246.6ZM811.435 246.6C808.668 246.6 806.102 246.15 803.735 245.25C801.402 244.35 799.368 243.083 797.635 241.45C795.935 239.817 794.602 237.9 793.635 235.7C792.702 233.5 792.235 231.1 792.235 228.5C792.235 225.9 792.702 223.5 793.635 221.3C794.602 219.1 795.952 217.183 797.685 215.55C799.418 213.917 801.452 212.65 803.785 211.75C806.118 210.85 808.652 210.4 811.385 210.4C814.152 210.4 816.685 210.85 818.985 211.75C821.318 212.65 823.335 213.917 825.035 215.55C826.768 217.183 828.118 219.1 829.085 221.3C830.052 223.467 830.535 225.867 830.535 228.5C830.535 231.1 830.052 233.517 829.085 235.75C828.118 237.95 826.768 239.867 825.035 241.5C823.335 243.1 821.318 244.35 818.985 245.25C816.685 246.15 814.168 246.6 811.435 246.6ZM811.385 239.7C812.952 239.7 814.385 239.433 815.685 238.9C817.018 238.367 818.185 237.6 819.185 236.6C820.185 235.6 820.952 234.417 821.485 233.05C822.052 231.683 822.335 230.167 822.335 228.5C822.335 226.833 822.052 225.317 821.485 223.95C820.952 222.583 820.185 221.4 819.185 220.4C818.218 219.4 817.068 218.633 815.735 218.1C814.402 217.567 812.952 217.3 811.385 217.3C809.818 217.3 808.368 217.567 807.035 218.1C805.735 218.633 804.585 219.4 803.585 220.4C802.585 221.4 801.802 222.583 801.235 223.95C800.702 225.317 800.435 226.833 800.435 228.5C800.435 230.133 800.702 231.65 801.235 233.05C801.802 234.417 802.568 235.6 803.535 236.6C804.535 237.6 805.702 238.367 807.035 238.9C808.368 239.433 809.818 239.7 811.385 239.7ZM853.623 246.6C850.856 246.6 848.289 246.15 845.923 245.25C843.589 244.35 841.556 243.083 839.823 241.45C838.123 239.817 836.789 237.9 835.823 235.7C834.889 233.5 834.423 231.1 834.423 228.5C834.423 225.9 834.889 223.5 835.823 221.3C836.789 219.1 838.139 217.183 839.873 215.55C841.606 213.917 843.639 212.65 845.973 211.75C848.306 210.85 850.839 210.4 853.573 210.4C856.339 210.4 858.873 210.85 861.173 211.75C863.506 212.65 865.523 213.917 867.223 215.55C868.956 217.183 870.306 219.1 871.273 221.3C872.239 223.467 872.723 225.867 872.723 228.5C872.723 231.1 872.239 233.517 871.273 235.75C870.306 237.95 868.956 239.867 867.223 241.5C865.523 243.1 863.506 244.35 861.173 245.25C858.873 246.15 856.356 246.6 853.623 246.6ZM853.573 239.7C855.139 239.7 856.573 239.433 857.873 238.9C859.206 238.367 860.373 237.6 861.373 236.6C862.373 235.6 863.139 234.417 863.673 233.05C864.239 231.683 864.523 230.167 864.523 228.5C864.523 226.833 864.239 225.317 863.673 223.95C863.139 222.583 862.373 221.4 861.373 220.4C860.406 219.4 859.256 218.633 857.923 218.1C856.589 217.567 855.139 217.3 853.573 217.3C852.006 217.3 850.556 217.567 849.223 218.1C847.923 218.633 846.773 219.4 845.773 220.4C844.773 221.4 843.989 222.583 843.423 223.95C842.889 225.317 842.623 226.833 842.623 228.5C842.623 230.133 842.889 231.65 843.423 233.05C843.989 234.417 844.756 235.6 845.723 236.6C846.723 237.6 847.889 238.367 849.223 238.9C850.556 239.433 852.006 239.7 853.573 239.7ZM878.81 246V211H885.51L906.16 236.2H902.91V211H910.91V246H904.26L883.56 220.8H886.81V246H878.81Z" fill="#09AEEF"/>
<g filter="url(#filter0_d_749_2891)">
<rect width="1440" height="73" transform="translate(1 617)" fill="#17A2B8"/>
<path d="M642.464 662.048C641.664 662.048 640.923 661.904 640.24 661.616C639.557 661.328 638.96 660.928 638.448 660.416C637.936 659.893 637.536 659.291 637.248 658.608C636.971 657.925 636.832 657.189 636.832 656.4C636.832 655.611 636.976 654.875 637.264 654.192C637.552 653.509 637.952 652.912 638.464 652.4C638.976 651.877 639.573 651.472 640.256 651.184C640.949 650.896 641.696 650.752 642.496 650.752C643.296 650.752 644.037 650.896 644.72 651.184C645.413 651.461 646.011 651.856 646.512 652.368C647.024 652.88 647.419 653.477 647.696 654.16C647.984 654.832 648.128 655.568 648.128 656.368C648.128 657.168 647.984 657.915 647.696 658.608C647.408 659.291 647.003 659.893 646.48 660.416C645.968 660.928 645.371 661.328 644.688 661.616C644.005 661.904 643.264 662.048 642.464 662.048ZM642.448 661.456C643.173 661.456 643.84 661.328 644.448 661.072C645.056 660.805 645.589 660.443 646.048 659.984C646.517 659.525 646.88 658.987 647.136 658.368C647.392 657.739 647.52 657.072 647.52 656.368C647.52 655.653 647.392 654.992 647.136 654.384C646.891 653.776 646.539 653.243 646.08 652.784C645.632 652.325 645.099 651.973 644.48 651.728C643.872 651.472 643.211 651.344 642.496 651.344C641.771 651.344 641.099 651.472 640.48 651.728C639.861 651.984 639.323 652.347 638.864 652.816C638.416 653.275 638.064 653.808 637.808 654.416C637.552 655.024 637.424 655.685 637.424 656.4C637.424 657.104 637.552 657.765 637.808 658.384C638.064 658.992 638.416 659.531 638.864 660C639.323 660.459 639.856 660.816 640.464 661.072C641.083 661.328 641.744 661.456 642.448 661.456ZM642.608 659.728C641.968 659.728 641.397 659.589 640.896 659.312C640.395 659.024 640 658.629 639.712 658.128C639.424 657.627 639.28 657.051 639.28 656.4C639.28 655.749 639.424 655.173 639.712 654.672C640 654.171 640.395 653.781 640.896 653.504C641.397 653.216 641.968 653.072 642.608 653.072C643.152 653.072 643.643 653.184 644.08 653.408C644.528 653.621 644.885 653.92 645.152 654.304L644.464 654.816C644.24 654.507 643.968 654.277 643.648 654.128C643.328 653.979 642.976 653.904 642.592 653.904C642.133 653.904 641.723 654.011 641.36 654.224C641.008 654.427 640.725 654.715 640.512 655.088C640.299 655.461 640.192 655.899 640.192 656.4C640.192 656.901 640.299 657.339 640.512 657.712C640.725 658.085 641.008 658.379 641.36 658.592C641.723 658.795 642.133 658.896 642.592 658.896C642.976 658.896 643.328 658.821 643.648 658.672C643.968 658.523 644.24 658.293 644.464 657.984L645.152 658.48C644.885 658.875 644.528 659.184 644.08 659.408C643.643 659.621 643.152 659.728 642.608 659.728ZM653.749 662V661.184L658.405 656.624C658.832 656.208 659.152 655.845 659.365 655.536C659.578 655.216 659.722 654.917 659.797 654.64C659.872 654.363 659.909 654.101 659.909 653.856C659.909 653.205 659.685 652.693 659.237 652.32C658.8 651.947 658.149 651.76 657.285 651.76C656.624 651.76 656.037 651.861 655.525 652.064C655.024 652.267 654.592 652.581 654.229 653.008L653.413 652.304C653.85 651.792 654.41 651.397 655.093 651.12C655.776 650.843 656.538 650.704 657.381 650.704C658.138 650.704 658.794 650.827 659.349 651.072C659.904 651.307 660.33 651.653 660.629 652.112C660.938 652.571 661.093 653.109 661.093 653.728C661.093 654.091 661.04 654.448 660.933 654.8C660.837 655.152 660.656 655.525 660.389 655.92C660.133 656.304 659.754 656.741 659.253 657.232L654.981 661.424L654.661 660.976H661.605V662H653.749ZM667.484 662.096C666.62 662.096 665.852 661.872 665.18 661.424C664.508 660.965 663.98 660.315 663.596 659.472C663.212 658.619 663.02 657.595 663.02 656.4C663.02 655.205 663.212 654.187 663.596 653.344C663.98 652.491 664.508 651.84 665.18 651.392C665.852 650.933 666.62 650.704 667.484 650.704C668.348 650.704 669.116 650.933 669.788 651.392C670.46 651.84 670.988 652.491 671.372 653.344C671.766 654.187 671.964 655.205 671.964 656.4C671.964 657.595 671.766 658.619 671.372 659.472C670.988 660.315 670.46 660.965 669.788 661.424C669.116 661.872 668.348 662.096 667.484 662.096ZM667.484 661.04C668.145 661.04 668.721 660.864 669.212 660.512C669.702 660.149 670.086 659.627 670.364 658.944C670.641 658.251 670.78 657.403 670.78 656.4C670.78 655.397 670.641 654.555 670.364 653.872C670.086 653.179 669.702 652.656 669.212 652.304C668.721 651.941 668.145 651.76 667.484 651.76C666.844 651.76 666.273 651.941 665.772 652.304C665.27 652.656 664.881 653.179 664.604 653.872C664.326 654.555 664.188 655.397 664.188 656.4C664.188 657.403 664.326 658.251 664.604 658.944C664.881 659.627 665.27 660.149 665.772 660.512C666.273 660.864 666.844 661.04 667.484 661.04ZM673.405 662V661.184L678.061 656.624C678.488 656.208 678.808 655.845 679.021 655.536C679.235 655.216 679.379 654.917 679.453 654.64C679.528 654.363 679.565 654.101 679.565 653.856C679.565 653.205 679.341 652.693 678.893 652.32C678.456 651.947 677.805 651.76 676.941 651.76C676.28 651.76 675.693 651.861 675.181 652.064C674.68 652.267 674.248 652.581 673.885 653.008L673.069 652.304C673.507 651.792 674.067 651.397 674.749 651.12C675.432 650.843 676.195 650.704 677.037 650.704C677.795 650.704 678.451 650.827 679.005 651.072C679.56 651.307 679.987 651.653 680.285 652.112C680.595 652.571 680.749 653.109 680.749 653.728C680.749 654.091 680.696 654.448 680.589 654.8C680.493 655.152 680.312 655.525 680.045 655.92C679.789 656.304 679.411 656.741 678.909 657.232L674.637 661.424L674.317 660.976H681.261V662H673.405ZM686.051 662.096C685.24 662.096 684.472 661.968 683.747 661.712C683.032 661.445 682.456 661.093 682.019 660.656L682.579 659.744C682.942 660.117 683.427 660.427 684.035 660.672C684.654 660.917 685.326 661.04 686.051 661.04C686.979 661.04 687.688 660.837 688.179 660.432C688.68 660.027 688.931 659.483 688.931 658.8C688.931 658.117 688.686 657.573 688.195 657.168C687.715 656.763 686.952 656.56 685.907 656.56H685.107V655.712L688.563 651.376L688.723 651.824H682.483V650.8H689.683V651.616L686.227 655.952L685.667 655.584H686.099C687.443 655.584 688.446 655.883 689.107 656.48C689.779 657.077 690.115 657.845 690.115 658.784C690.115 659.413 689.966 659.979 689.667 660.48C689.368 660.981 688.915 661.376 688.307 661.664C687.71 661.952 686.958 662.096 686.051 662.096ZM696.918 662V650.8H701.11C702.059 650.8 702.875 650.955 703.558 651.264C704.24 651.563 704.763 652 705.126 652.576C705.499 653.141 705.686 653.829 705.686 654.64C705.686 655.429 705.499 656.112 705.126 656.688C704.763 657.253 704.24 657.691 703.558 658C702.875 658.309 702.059 658.464 701.11 658.464H697.574L698.102 657.904V662H696.918ZM698.102 658L697.574 657.424H701.078C702.198 657.424 703.046 657.184 703.622 656.704C704.208 656.213 704.502 655.525 704.502 654.64C704.502 653.744 704.208 653.051 703.622 652.56C703.046 652.069 702.198 651.824 701.078 651.824H697.574L698.102 651.264V658ZM708.246 662V650.8H709.43V660.976H715.702V662H708.246ZM717.668 662V650.8H718.644L726.372 660.528H725.86V650.8H727.028V662H726.052L718.34 652.272H718.852V662H717.668ZM734.871 662V650.8H736.055V662H734.871ZM742.947 662.08C742.115 662.08 741.368 661.899 740.707 661.536C740.056 661.163 739.544 660.656 739.171 660.016C738.798 659.365 738.611 658.624 738.611 657.792C738.611 656.949 738.798 656.208 739.171 655.568C739.544 654.928 740.056 654.427 740.707 654.064C741.368 653.701 742.115 653.52 742.947 653.52C743.662 653.52 744.307 653.659 744.883 653.936C745.459 654.213 745.912 654.629 746.243 655.184L745.395 655.76C745.107 655.333 744.75 655.019 744.323 654.816C743.896 654.613 743.432 654.512 742.931 654.512C742.334 654.512 741.795 654.651 741.315 654.928C740.835 655.195 740.456 655.573 740.179 656.064C739.902 656.555 739.763 657.131 739.763 657.792C739.763 658.453 739.902 659.029 740.179 659.52C740.456 660.011 740.835 660.395 741.315 660.672C741.795 660.939 742.334 661.072 742.931 661.072C743.432 661.072 743.896 660.971 744.323 660.768C744.75 660.565 745.107 660.256 745.395 659.84L746.243 660.416C745.912 660.96 745.459 661.376 744.883 661.664C744.307 661.941 743.662 662.08 742.947 662.08ZM751.758 662.08C750.947 662.08 750.217 661.899 749.566 661.536C748.926 661.163 748.419 660.656 748.046 660.016C747.673 659.365 747.486 658.624 747.486 657.792C747.486 656.949 747.673 656.208 748.046 655.568C748.419 654.928 748.926 654.427 749.566 654.064C750.206 653.701 750.937 653.52 751.758 653.52C752.59 653.52 753.326 653.701 753.966 654.064C754.617 654.427 755.123 654.928 755.486 655.568C755.859 656.208 756.046 656.949 756.046 657.792C756.046 658.624 755.859 659.365 755.486 660.016C755.123 660.656 754.617 661.163 753.966 661.536C753.315 661.899 752.579 662.08 751.758 662.08ZM751.758 661.072C752.366 661.072 752.905 660.939 753.374 660.672C753.843 660.395 754.211 660.011 754.478 659.52C754.755 659.019 754.894 658.443 754.894 657.792C754.894 657.131 754.755 656.555 754.478 656.064C754.211 655.573 753.843 655.195 753.374 654.928C752.905 654.651 752.371 654.512 751.774 654.512C751.177 654.512 750.643 654.651 750.174 654.928C749.705 655.195 749.331 655.573 749.054 656.064C748.777 656.555 748.638 657.131 748.638 657.792C748.638 658.443 748.777 659.019 749.054 659.52C749.331 660.011 749.705 660.395 750.174 660.672C750.643 660.939 751.171 661.072 751.758 661.072ZM762.653 653.52C763.336 653.52 763.933 653.653 764.445 653.92C764.968 654.176 765.373 654.571 765.661 655.104C765.96 655.637 766.109 656.309 766.109 657.12V662H764.973V657.232C764.973 656.347 764.749 655.68 764.301 655.232C763.864 654.773 763.245 654.544 762.445 654.544C761.848 654.544 761.325 654.667 760.877 654.912C760.44 655.147 760.099 655.493 759.853 655.952C759.619 656.4 759.501 656.944 759.501 657.584V662H758.365V653.6H759.453V655.904L759.277 655.472C759.544 654.864 759.971 654.389 760.557 654.048C761.144 653.696 761.843 653.52 762.653 653.52ZM773.605 662V650.8H777.797C778.747 650.8 779.563 650.955 780.245 651.264C780.928 651.563 781.451 652 781.813 652.576C782.187 653.141 782.373 653.829 782.373 654.64C782.373 655.429 782.187 656.112 781.813 656.688C781.451 657.253 780.928 657.691 780.245 658C779.563 658.309 778.747 658.464 777.797 658.464H774.261L774.789 657.904V662H773.605ZM774.789 658L774.261 657.424H777.765C778.885 657.424 779.733 657.184 780.309 656.704C780.896 656.213 781.189 655.525 781.189 654.64C781.189 653.744 780.896 653.051 780.309 652.56C779.733 652.069 778.885 651.824 777.765 651.824H774.261L774.789 651.264V658ZM784.85 662V650.128H785.986V662H784.85ZM792.619 662.08C791.904 662.08 791.28 661.947 790.747 661.68C790.213 661.413 789.797 661.013 789.499 660.48C789.211 659.947 789.067 659.28 789.067 658.48V653.6H790.203V658.352C790.203 659.248 790.421 659.925 790.859 660.384C791.307 660.832 791.931 661.056 792.731 661.056C793.317 661.056 793.824 660.939 794.251 660.704C794.688 660.459 795.019 660.107 795.243 659.648C795.477 659.189 795.595 658.64 795.595 658V653.6H796.731V662H795.642V659.696L795.819 660.112C795.552 660.731 795.136 661.216 794.571 661.568C794.016 661.909 793.365 662.08 792.619 662.08ZM802.153 662.08C801.459 662.08 800.803 661.984 800.185 661.792C799.566 661.589 799.081 661.339 798.729 661.04L799.241 660.144C799.582 660.4 800.019 660.624 800.553 660.816C801.086 660.997 801.646 661.088 802.233 661.088C803.033 661.088 803.609 660.965 803.961 660.72C804.313 660.464 804.489 660.128 804.489 659.712C804.489 659.403 804.387 659.163 804.185 658.992C803.993 658.811 803.737 658.677 803.417 658.592C803.097 658.496 802.739 658.416 802.345 658.352C801.95 658.288 801.555 658.213 801.161 658.128C800.777 658.043 800.425 657.92 800.105 657.76C799.785 657.589 799.523 657.36 799.321 657.072C799.129 656.784 799.033 656.4 799.033 655.92C799.033 655.461 799.161 655.051 799.417 654.688C799.673 654.325 800.046 654.043 800.537 653.84C801.038 653.627 801.646 653.52 802.361 653.52C802.905 653.52 803.449 653.595 803.993 653.744C804.537 653.883 804.985 654.069 805.337 654.304L804.841 655.216C804.467 654.96 804.067 654.779 803.641 654.672C803.214 654.555 802.787 654.496 802.361 654.496C801.603 654.496 801.043 654.629 800.681 654.896C800.329 655.152 800.153 655.483 800.153 655.888C800.153 656.208 800.249 656.459 800.441 656.64C800.643 656.821 800.905 656.965 801.225 657.072C801.555 657.168 801.913 657.248 802.297 657.312C802.691 657.376 803.081 657.456 803.465 657.552C803.859 657.637 804.217 657.76 804.537 657.92C804.867 658.069 805.129 658.288 805.321 658.576C805.523 658.853 805.625 659.221 805.625 659.68C805.625 660.171 805.486 660.597 805.209 660.96C804.942 661.312 804.547 661.589 804.025 661.792C803.513 661.984 802.889 662.08 802.153 662.08Z" fill="#F8F8F8"/>
</g>
</g>
<defs>
<filter id="filter0_d_749_2891" x="-7" y="605" width="1456" height="89" filterUnits="userSpaceOnUse" color-interpolation-filters="sRGB">
<feFlood flood-opacity="0" result="BackgroundImageFix"/>
<feColorMatrix in="SourceAlpha" type="matrix" values="0 0 0 0 0 0 0 0 0 0 0 0 0 0 0 0 0 0 127 0" result="hardAlpha"/>
<feOffset dy="-4"/>
<feGaussianBlur stdDeviation="4"/>
<feComposite in2="hardAlpha" operator="out"/>
<feColorMatrix type="matrix" values="0 0 0 0 0 0 0 0 0 0 0 0 0 0 0 0 0 0 0.05 0"/>
<feBlend mode="normal" in2="BackgroundImageFix" result="effect1_dropShadow_749_2891"/>
<feBlend mode="normal" in="SourceGraphic" in2="effect1_dropShadow_749_2891" result="shape"/>
</filter>
<clipPath id="clip0_749_2891">
<rect width="1440" height="689" fill="white"/>
</clipPath>
</defs>
</svg>
