<svg width="1440" height="730" viewBox="0 0 1440 730" fill="none" xmlns="http://www.w3.org/2000/svg">
<g clip-path="url(#clip0_749_2891)">
<rect width="1440" height="730" fill="white"/>
<path d="M924.095 278.464C920.693 278.464 916.158 277.825 911.622 276.546C907.087 274.628 902.551 271.431 893.481 268.234C888.945 266.955 883.276 266.316 878.74 265.677C874.205 265.037 868.536 265.037 864 264.398C853.795 263.759 842.457 263.119 829.984 262.48C817.512 261.84 806.173 261.201 792.567 260.562C789.166 260.562 784.63 260.562 778.961 261.201C774.425 261.84 769.89 263.759 767.622 265.037C763.087 266.955 760.819 266.955 756.284 266.955C751.748 266.316 746.079 265.037 739.276 263.759C732.473 262.48 725.669 260.562 715.465 259.922C712.063 259.922 706.394 259.922 701.858 260.562C697.323 261.201 695.055 261.84 692.788 261.84C687.118 262.48 681.449 262.48 674.646 262.48C667.843 262.48 659.906 261.84 651.969 263.119C644.032 263.759 636.095 266.316 631.559 266.955C621.355 268.874 610.016 268.874 597.543 269.513C585.071 269.513 573.732 270.152 563.528 270.792C521.575 272.07 493.229 273.988 493.229 273.988C493.229 273.988 521.575 275.907 563.528 277.825C573.732 278.464 585.071 278.464 597.543 279.103C608.882 279.103 622.488 280.382 638.362 277.825C646.299 276.546 650.835 275.267 655.37 274.628C659.906 273.989 666.709 274.628 673.512 274.628C680.315 274.628 688.252 275.267 697.323 273.988C701.858 273.349 705.26 272.71 708.662 272.71C712.063 272.07 713.197 272.07 716.599 272.07C720 272.07 726.803 273.349 732.473 274.628C739.276 275.907 746.079 277.825 755.15 278.464C759.685 278.464 764.221 278.464 769.89 277.825C772.158 277.185 774.425 276.546 776.693 275.907C778.961 275.267 780.095 274.628 782.362 273.988C788.032 271.431 788.032 271.431 793.701 271.431C806.173 271.431 819.78 271.431 831.118 271.431C843.591 271.431 854.929 271.431 865.134 271.431C875.339 271.431 885.543 270.792 892.347 272.07C899.15 273.349 904.819 276.546 911.622 277.825C917.292 279.103 922.961 279.103 926.362 278.464C929.764 277.825 930.898 276.546 930.898 276.546C930.898 276.546 927.496 277.825 924.095 278.464Z" fill="#F8DB25"/>
<path d="M300.091 183.659L292.484 186.312L278.639 142.829L284.207 198.145L291.813 195.492L305.759 239.238L300.091 183.659Z" fill="#F8DB25"/>
<path d="M1000.09 183.659L992.484 186.312L978.639 142.829L984.207 198.144L991.813 195.492L1005.76 239.238L1000.09 183.659Z" fill="#F8DB25"/>
<path d="M448.561 185.211L440.618 183.869L451.343 139.406L427.311 190.191L435.254 191.533L424.478 236.273L448.561 185.211Z" fill="#F8DB25"/>
<path d="M1140.56 185.211L1132.62 183.869L1143.34 139.406L1119.31 190.191L1127.25 191.533L1116.48 236.273L1140.56 185.211Z" fill="#F8DB25"/>
<path d="M375 173.634H366.944L369.444 128L355 182.084H363.056L360.556 228L375 173.634Z" fill="#F8DB25"/>
<path d="M1075 173.634H1066.94L1069.44 128L1055 182.084H1063.06L1060.56 228L1075 173.634Z" fill="#F8DB25"/>
<path d="M1093.04 274.513V641.511C1074.9 647.905 1055.62 653.659 1036.35 658.774V274.513H1093.04Z" fill="#09AEEF"/>
<path d="M1064.69 332.099C1109.15 332.099 1145.2 311.775 1145.2 286.704C1145.2 261.633 1109.15 241.309 1064.69 241.309C1020.23 241.309 984.188 261.633 984.188 286.704C984.188 311.775 1020.23 332.099 1064.69 332.099Z" fill="#F8DB25"/>
<path d="M1156.54 605.11H973.984C956.976 605.11 943.37 597.438 943.37 587.847V586.568C943.37 576.978 956.976 569.305 973.984 569.305H1156.54C1173.54 569.305 1187.15 576.978 1187.15 586.568V587.847C1187.15 597.438 1173.54 605.11 1156.54 605.11Z" fill="#09AEEF"/>
<path d="M1156.54 552.043H973.984C956.976 552.043 943.37 544.37 943.37 534.78V533.501C943.37 523.91 956.976 516.238 973.984 516.238H1156.54C1173.54 516.238 1187.15 523.91 1187.15 533.501V534.78C1187.15 544.37 1173.54 552.043 1156.54 552.043Z" fill="#09AEEF"/>
<path d="M1156.54 498.336H973.984C956.976 498.336 943.37 490.663 943.37 481.073V479.794C943.37 470.203 956.976 462.531 973.984 462.531H1156.54C1173.54 462.531 1187.15 470.203 1187.15 479.794V481.073C1187.15 490.663 1173.54 498.336 1156.54 498.336Z" fill="#09AEEF"/>
<path d="M1156.54 445.268H973.984C956.976 445.268 943.37 437.595 943.37 428.005V426.726C943.37 417.135 956.976 409.463 973.984 409.463H1156.54C1173.54 409.463 1187.15 417.135 1187.15 426.726V428.005C1187.15 437.595 1173.54 445.268 1156.54 445.268Z" fill="#09AEEF"/>
<path d="M1156.54 391.561H973.984C956.976 391.561 943.37 383.888 943.37 374.298V373.019C943.37 363.428 956.976 355.756 973.984 355.756H1156.54C1173.54 355.756 1187.15 363.428 1187.15 373.019V374.298C1187.15 383.888 1173.54 391.561 1156.54 391.561Z" fill="#09AEEF"/>
<path d="M403.654 274.513V658.774C384.378 653.659 365.103 647.905 346.961 641.511V274.513H403.654Z" fill="#09AEEF"/>
<path d="M375.307 332.099C419.768 332.099 455.811 311.775 455.811 286.704C455.811 261.633 419.768 241.309 375.307 241.309C330.846 241.309 294.803 261.633 294.803 286.704C294.803 311.775 330.846 332.099 375.307 332.099Z" fill="#F8DB25"/>
<path d="M466.016 605.11H283.465C266.457 605.11 252.851 597.438 252.851 587.847V586.568C252.851 576.978 266.457 569.305 283.465 569.305H466.016C483.024 569.305 496.63 576.978 496.63 586.568V587.847C496.63 597.438 483.024 605.11 466.016 605.11Z" fill="#09AEEF"/>
<path d="M466.016 552.043H283.465C266.457 552.043 252.851 544.37 252.851 534.78V533.501C252.851 523.91 266.457 516.238 283.465 516.238H466.016C483.024 516.238 496.63 523.91 496.63 533.501V534.78C496.63 544.37 483.024 552.043 466.016 552.043Z" fill="#09AEEF"/>
<path d="M466.016 498.336H283.465C266.457 498.336 252.851 490.663 252.851 481.073V479.794C252.851 470.203 266.457 462.531 283.465 462.531H466.016C483.024 462.531 496.63 470.203 496.63 479.794V481.073C496.63 490.663 483.024 498.336 466.016 498.336Z" fill="#09AEEF"/>
<path d="M466.016 445.268H283.465C266.457 445.268 252.851 437.595 252.851 428.005V426.726C252.851 417.135 266.457 409.463 283.465 409.463H466.016C483.024 409.463 496.63 417.135 496.63 426.726V428.005C496.63 437.595 483.024 445.268 466.016 445.268Z" fill="#09AEEF"/>
<path d="M466.016 391.561H283.465C266.457 391.561 252.851 383.888 252.851 374.298V373.019C252.851 363.428 266.457 355.756 283.465 355.756H466.016C483.024 355.756 496.63 363.428 496.63 373.019V374.298C496.63 383.888 483.024 391.561 466.016 391.561Z" fill="#09AEEF"/>
<path d="M543.9 243.6C541.2 243.6 538.683 243.167 536.35 242.3C534.05 241.4 532.05 240.133 530.35 238.5C528.65 236.867 527.317 234.95 526.35 232.75C525.417 230.55 524.95 228.133 524.95 225.5C524.95 222.867 525.417 220.45 526.35 218.25C527.317 216.05 528.65 214.133 530.35 212.5C532.083 210.867 534.1 209.617 536.4 208.75C538.7 207.85 541.217 207.4 543.95 207.4C546.983 207.4 549.717 207.933 552.15 209C554.617 210.033 556.683 211.567 558.35 213.6L553.15 218.4C551.95 217.033 550.617 216.017 549.15 215.35C547.683 214.65 546.083 214.3 544.35 214.3C542.717 214.3 541.217 214.567 539.85 215.1C538.483 215.633 537.3 216.4 536.3 217.4C535.3 218.4 534.517 219.583 533.95 220.95C533.417 222.317 533.15 223.833 533.15 225.5C533.15 227.167 533.417 228.683 533.95 230.05C534.517 231.417 535.3 232.6 536.3 233.6C537.3 234.6 538.483 235.367 539.85 235.9C541.217 236.433 542.717 236.7 544.35 236.7C546.083 236.7 547.683 236.367 549.15 235.7C550.617 235 551.95 233.95 553.15 232.55L558.35 237.35C556.683 239.383 554.617 240.933 552.15 242C549.717 243.067 546.967 243.6 543.9 243.6ZM580.088 243.6C577.321 243.6 574.754 243.15 572.388 242.25C570.054 241.35 568.021 240.083 566.287 238.45C564.588 236.817 563.254 234.9 562.288 232.7C561.354 230.5 560.888 228.1 560.888 225.5C560.888 222.9 561.354 220.5 562.288 218.3C563.254 216.1 564.604 214.183 566.338 212.55C568.071 210.917 570.104 209.65 572.438 208.75C574.771 207.85 577.304 207.4 580.038 207.4C582.804 207.4 585.337 207.85 587.638 208.75C589.971 209.65 591.988 210.917 593.688 212.55C595.421 214.183 596.771 216.1 597.738 218.3C598.704 220.467 599.188 222.867 599.188 225.5C599.188 228.1 598.704 230.517 597.738 232.75C596.771 234.95 595.421 236.867 593.688 238.5C591.988 240.1 589.971 241.35 587.638 242.25C585.337 243.15 582.821 243.6 580.088 243.6ZM580.038 236.7C581.604 236.7 583.038 236.433 584.338 235.9C585.671 235.367 586.838 234.6 587.838 233.6C588.838 232.6 589.604 231.417 590.138 230.05C590.704 228.683 590.988 227.167 590.988 225.5C590.988 223.833 590.704 222.317 590.138 220.95C589.604 219.583 588.838 218.4 587.838 217.4C586.871 216.4 585.721 215.633 584.388 215.1C583.054 214.567 581.604 214.3 580.038 214.3C578.471 214.3 577.021 214.567 575.688 215.1C574.388 215.633 573.238 216.4 572.238 217.4C571.238 218.4 570.454 219.583 569.888 220.95C569.354 222.317 569.088 223.833 569.088 225.5C569.088 227.133 569.354 228.65 569.888 230.05C570.454 231.417 571.221 232.6 572.188 233.6C573.188 234.6 574.354 235.367 575.688 235.9C577.021 236.433 578.471 236.7 580.038 236.7ZM605.275 243V208H611.975L626.875 232.7H623.325L637.975 208H644.625L644.725 243H637.125L637.075 219.65H638.475L626.775 239.3H623.125L611.175 219.65H612.875V243H605.275ZM653.029 243V208H661.129V243H653.029ZM669.435 243V208H676.135L696.785 233.2H693.535V208H701.535V243H694.885L674.185 217.8H677.435V243H669.435ZM726.716 243.6C723.949 243.6 721.399 243.167 719.066 242.3C716.766 241.4 714.749 240.133 713.016 238.5C711.316 236.867 709.983 234.95 709.016 232.75C708.083 230.55 707.616 228.133 707.616 225.5C707.616 222.867 708.083 220.45 709.016 218.25C709.983 216.05 711.333 214.133 713.066 212.5C714.799 210.867 716.833 209.617 719.166 208.75C721.499 207.85 724.066 207.4 726.866 207.4C729.966 207.4 732.749 207.917 735.216 208.95C737.716 209.983 739.816 211.483 741.516 213.45L736.316 218.25C735.049 216.917 733.666 215.933 732.166 215.3C730.666 214.633 729.033 214.3 727.266 214.3C725.566 214.3 724.016 214.567 722.616 215.1C721.216 215.633 719.999 216.4 718.966 217.4C717.966 218.4 717.183 219.583 716.616 220.95C716.083 222.317 715.816 223.833 715.816 225.5C715.816 227.133 716.083 228.633 716.616 230C717.183 231.367 717.966 232.567 718.966 233.6C719.999 234.6 721.199 235.367 722.566 235.9C723.966 236.433 725.499 236.7 727.166 236.7C728.766 236.7 730.316 236.45 731.816 235.95C733.349 235.417 734.833 234.533 736.266 233.3L740.866 239.15C738.966 240.583 736.749 241.683 734.216 242.45C731.716 243.217 729.216 243.6 726.716 243.6ZM733.466 238.1V224.95H740.866V239.15L733.466 238.1ZM774.05 243.6C771.25 243.6 768.567 243.233 766 242.5C763.434 241.733 761.367 240.75 759.8 239.55L762.55 233.45C764.05 234.517 765.817 235.4 767.85 236.1C769.917 236.767 772 237.1 774.1 237.1C775.7 237.1 776.984 236.95 777.95 236.65C778.95 236.317 779.684 235.867 780.15 235.3C780.617 234.733 780.85 234.083 780.85 233.35C780.85 232.417 780.484 231.683 779.75 231.15C779.017 230.583 778.05 230.133 776.85 229.8C775.65 229.433 774.317 229.1 772.85 228.8C771.417 228.467 769.967 228.067 768.5 227.6C767.067 227.133 765.75 226.533 764.55 225.8C763.35 225.067 762.367 224.1 761.6 222.9C760.867 221.7 760.5 220.167 760.5 218.3C760.5 216.3 761.034 214.483 762.1 212.85C763.2 211.183 764.834 209.867 767 208.9C769.2 207.9 771.95 207.4 775.25 207.4C777.45 207.4 779.617 207.667 781.75 208.2C783.884 208.7 785.767 209.467 787.4 210.5L784.9 216.65C783.267 215.717 781.634 215.033 780 214.6C778.367 214.133 776.767 213.9 775.2 213.9C773.634 213.9 772.35 214.083 771.35 214.45C770.35 214.817 769.634 215.3 769.2 215.9C768.767 216.467 768.55 217.133 768.55 217.9C768.55 218.8 768.917 219.533 769.65 220.1C770.384 220.633 771.35 221.067 772.55 221.4C773.75 221.733 775.067 222.067 776.5 222.4C777.967 222.733 779.417 223.117 780.85 223.55C782.317 223.983 783.65 224.567 784.85 225.3C786.05 226.033 787.017 227 787.75 228.2C788.517 229.4 788.9 230.917 788.9 232.75C788.9 234.717 788.35 236.517 787.25 238.15C786.15 239.783 784.5 241.1 782.3 242.1C780.134 243.1 777.384 243.6 774.05 243.6ZM811.435 243.6C808.668 243.6 806.102 243.15 803.735 242.25C801.402 241.35 799.368 240.083 797.635 238.45C795.935 236.817 794.602 234.9 793.635 232.7C792.702 230.5 792.235 228.1 792.235 225.5C792.235 222.9 792.702 220.5 793.635 218.3C794.602 216.1 795.952 214.183 797.685 212.55C799.418 210.917 801.452 209.65 803.785 208.75C806.118 207.85 808.652 207.4 811.385 207.4C814.152 207.4 816.685 207.85 818.985 208.75C821.318 209.65 823.335 210.917 825.035 212.55C826.768 214.183 828.118 216.1 829.085 218.3C830.052 220.467 830.535 222.867 830.535 225.5C830.535 228.1 830.052 230.517 829.085 232.75C828.118 234.95 826.768 236.867 825.035 238.5C823.335 240.1 821.318 241.35 818.985 242.25C816.685 243.15 814.168 243.6 811.435 243.6ZM811.385 236.7C812.952 236.7 814.385 236.433 815.685 235.9C817.018 235.367 818.185 234.6 819.185 233.6C820.185 232.6 820.952 231.417 821.485 230.05C822.052 228.683 822.335 227.167 822.335 225.5C822.335 223.833 822.052 222.317 821.485 220.95C820.952 219.583 820.185 218.4 819.185 217.4C818.218 216.4 817.068 215.633 815.735 215.1C814.402 214.567 812.952 214.3 811.385 214.3C809.818 214.3 808.368 214.567 807.035 215.1C805.735 215.633 804.585 216.4 803.585 217.4C802.585 218.4 801.802 219.583 801.235 220.95C800.702 222.317 800.435 223.833 800.435 225.5C800.435 227.133 800.702 228.65 801.235 230.05C801.802 231.417 802.568 232.6 803.535 233.6C804.535 234.6 805.702 235.367 807.035 235.9C808.368 236.433 809.818 236.7 811.385 236.7ZM853.623 243.6C850.856 243.6 848.289 243.15 845.923 242.25C843.589 241.35 841.556 240.083 839.823 238.45C838.123 236.817 836.789 234.9 835.823 232.7C834.889 230.5 834.423 228.1 834.423 225.5C834.423 222.9 834.889 220.5 835.823 218.3C836.789 216.1 838.139 214.183 839.873 212.55C841.606 210.917 843.639 209.65 845.973 208.75C848.306 207.85 850.839 207.4 853.573 207.4C856.339 207.4 858.873 207.85 861.173 208.75C863.506 209.65 865.523 210.917 867.223 212.55C868.956 214.183 870.306 216.1 871.273 218.3C872.239 220.467 872.723 222.867 872.723 225.5C872.723 228.1 872.239 230.517 871.273 232.75C870.306 234.95 868.956 236.867 867.223 238.5C865.523 240.1 863.506 241.35 861.173 242.25C858.873 243.15 856.356 243.6 853.623 243.6ZM853.573 236.7C855.139 236.7 856.573 236.433 857.873 235.9C859.206 235.367 860.373 234.6 861.373 233.6C862.373 232.6 863.139 231.417 863.673 230.05C864.239 228.683 864.523 227.167 864.523 225.5C864.523 223.833 864.239 222.317 863.673 220.95C863.139 219.583 862.373 218.4 861.373 217.4C860.406 216.4 859.256 215.633 857.923 215.1C856.589 214.567 855.139 214.3 853.573 214.3C852.006 214.3 850.556 214.567 849.223 215.1C847.923 215.633 846.773 216.4 845.773 217.4C844.773 218.4 843.989 219.583 843.423 220.95C842.889 222.317 842.623 223.833 842.623 225.5C842.623 227.133 842.889 228.65 843.423 230.05C843.989 231.417 844.756 232.6 845.723 233.6C846.723 234.6 847.889 235.367 849.223 235.9C850.556 236.433 852.006 236.7 853.573 236.7ZM878.81 243V208H885.51L906.16 233.2H902.91V208H910.91V243H904.26L883.56 217.8H886.81V243H878.81Z" fill="#09AEEF"/>
<ellipse cx="368.5" cy="771.437" rx="609.5" ry="160.044" fill="#17A2B8"/>
<ellipse cx="1143" cy="795.962" rx="612" ry="160.044" fill="#17A2B8"/>
</g>
<defs>
<clipPath id="clip0_749_2891">
<rect width="1440" height="730" fill="white"/>
</clipPath>
</defs>
</svg>
