<svg width="18" height="18" viewBox="0 0 18 18" fill="none" xmlns="http://www.w3.org/2000/svg">
<path fill-rule="evenodd" clip-rule="evenodd" d="M6.80001 2.39995C4.36996 2.39995 2.40001 4.3699 2.40001 6.79995C2.40001 9.22996 4.36996 11.2 6.80001 11.2C9.23002 11.2 11.2 9.22996 11.2 6.79995C11.2 4.3699 9.23002 2.39995 6.80001 2.39995ZM0.200012 6.79995C0.200012 3.15487 3.15493 0.199951 6.80001 0.199951C10.4451 0.199951 13.4 3.15487 13.4 6.79995C13.4 8.22536 12.9481 9.54522 12.1798 10.6241L17.4778 15.9221C17.9074 16.3517 17.9074 17.0482 17.4778 17.4778C17.0483 17.9073 16.3518 17.9073 15.9222 17.4778L10.6242 12.1797C9.54528 12.9481 8.22542 13.4 6.80001 13.4C3.15493 13.4 0.200012 10.445 0.200012 6.79995Z" fill="#4A5568"/>
</svg>
